<?xml version="1.0" encoding="UTF-8"?>
<svg width="324px" height="88px" viewBox="0 0 324 88" version="1.1" xmlns="http://www.w3.org/2000/svg" xmlns:xlink="http://www.w3.org/1999/xlink">
    <!-- Generator: Sketch 48.2 (47327) - http://www.bohemiancoding.com/sketch -->
    <title>Asset_deine Challenge</title>
    <desc>Created with Sketch.</desc>
    <defs></defs>
    <g id="Screens" stroke="none" stroke-width="1" fill="none" fill-rule="evenodd">
        <g id="Asset_deine-Challenge" fill-rule="nonzero">
            <g id="Group" style="mix-blend-mode: multiply;" transform="translate(0.000000, 2.885246)" fill="#4C00C8">
                <path d="M312.9264,45.0963934 C313.403198,43.4505603 313.195454,41.6815132 312.3504,40.1914754 L318.8736,17.4701639 L285.2928,21.0045902 L261.3456,23.5147541 L239.04,25.9672131 L238.4784,28.2465574 C235.703864,26.6631742 232.472323,26.0777903 229.32,26.587541 C224.578571,27.1256655 220.085699,28.9961042 216.36,31.9829508 L217.296,28.2609836 L199.1664,30.1652459 L198.72,32.242623 L197.5824,30.295082 L188.8416,31.2039344 L182.7504,31.8531148 L157.392,34.4931148 L152.3664,35.0268852 L134.208,36.9311475 L129.744,37.5081967 L137.9376,1.44262295 L112.0176,4.16918033 L106.56,4.81836066 L93.9888,6.14557377 L93.456,8.29508197 L92.304,6.3042623 L82.8432,7.31409836 L77.4864,7.87672131 L70.56,8.6557377 L64.656,9.27606557 L39.1392,11.9160656 L38.1312,15.9554098 C35.5968,13.8203279 31.68,12.695082 26.0496,13.2865574 L10.44,14.9311475 L1.44,51.0111475 L16.8912,49.3809836 C22.0742913,48.8596095 27.0152413,46.9235404 31.176,43.7836066 L30.1248,47.9816393 L39.4128,47.015082 C29.808,50.0013115 23.544,58.6570492 21.6,66.3606557 C18.8496,77.3678689 24.192,84.0183607 34.8624,82.8931148 C38.325433,82.539873 41.6659711,81.4161174 44.64,79.6039344 L44.1504,81.5514754 L68.1696,79.0268852 L78.8256,77.9016393 L87.5952,76.9783607 L90.9504,71.6839344 L92.3904,71.5396721 L93.2256,76.372459 L102.0096,75.4491803 L112.7232,74.3239344 L125.28,73.0111475 L133.344,72.16 L148.464,70.5731148 L156.528,69.7219672 L173.808,67.9042623 L180.7056,67.1685246 L191.9232,65.9855738 L192.5424,63.4754098 L193.824,65.7980328 L208.3536,64.2688525 L209.232,60.7632787 C211.7232,62.9272131 215.4384,63.922623 220.1328,63.4321311 C223.877638,63.0161955 227.473012,61.7266182 230.6304,59.6668852 L230.0688,61.975082 L262.3248,58.584918 L272.4048,57.5318033 C273.380829,57.7282846 274.380764,57.7769135 275.3712,57.6760656 C277.867997,57.331921 280.233885,56.3480655 282.24,54.8196721 C283.92378,56.0752405 286.042715,56.5955334 288.1152,56.2622951 C290.624331,55.9432765 293.006875,54.9736049 295.0272,53.4491803 C296.713249,54.7116602 298.839496,55.2324718 300.9168,54.8918033 C306.3168,54.3580328 311.7168,49.9436066 312.9264,45.0963934 Z" id="Shape"></path>
                <path d="M32.6016,84.5377049 C28.7334592,84.7660528 24.9631164,83.2657342 22.3056,80.4406557 C19.4256,77.0793443 18.6336,72.0734426 20.16,66.0144262 C21.8941209,59.3611913 25.8472478,53.5021465 31.3632,49.4098361 L30.312,49.5252459 L28.6848,47.6065574 L28.8,47.1737705 C25.1900001,49.2066193 21.1990952,50.4689421 17.0784,50.8813115 L1.6272,52.5114754 L0,50.6504918 L8.9856,14.584918 L10.2816,13.4452459 L25.92,11.7862295 C29.7683908,11.1756262 33.7111103,11.7701266 37.2096,13.4885246 L37.6704,11.5409836 L38.9808,10.4013115 L92.16,4.80393443 L93.0384,5.26557377 L93.7728,4.63081967 L137.7792,0 L139.4064,1.84655738 L131.7024,35.7193443 L134.0208,35.4308197 L197.3808,28.7514754 L198.2592,29.2131148 L198.9792,28.5927869 L217.1088,26.6740984 L218.6784,28.4918033 C221.861324,26.6017323 225.41128,25.4162579 229.0896,25.015082 C231.895158,24.6371008 234.750507,24.9643041 237.3984,25.9672131 L237.4992,25.5344262 L238.8096,24.3947541 L285.12,19.4898361 L318.6864,15.9409836 L320.2992,17.8740984 L313.92,40.0183607 C314.703652,41.7224604 314.856777,43.6502351 314.352,45.4570492 C312.912,50.9678689 307.152,55.7862295 300.9744,56.4354098 C298.892904,56.7271023 296.773362,56.3267471 294.9408,55.2957377 C292.911691,56.6354573 290.599782,57.484866 288.1872,57.7770492 C286.10279,58.0667432 283.980798,57.6719413 282.1392,56.6518033 C280.129326,57.990187 277.837525,58.8443888 275.4432,59.147541 C274.381846,59.2627088 273.309292,59.2189505 272.2608,59.0177049 L230.1984,63.4754098 L229.1328,62.2636066 C226.383102,63.6837411 223.395526,64.5836026 220.32,64.9180328 C216.868078,65.4208917 213.345489,64.8360852 210.24,63.2445902 L209.8944,64.615082 L208.584,65.7547541 L194.0544,67.2839344 L193.0032,66.7357377 L192.1536,67.4859016 L93.4272,77.9016393 L91.7712,76.6465574 L91.3248,73.9632787 L88.8768,77.8006557 L87.84,78.4786885 L44.2368,83.0662295 L43.3152,81.9986885 C40.7246784,83.2871421 37.925751,84.1029475 35.0496,84.4078689 C34.2363597,84.4931404 33.4192816,84.5364763 32.6016,84.5377049 Z M39.2832,45.5003279 L39.888,48.4577049 C30.7152,51.3429508 24.84,59.6813115 23.0832,66.7213115 C21.8448,71.7416393 22.3776,75.8963934 24.5232,78.4498361 C26.6688,81.0032787 30.1104,81.8832787 34.6032,81.335082 C37.8127049,80.987754 40.9057883,79.9335003 43.6608,78.2478689 L45.7488,79.7914754 L86.5872,75.4636066 L89.5536,70.7895082 L90.6624,70.0970492 L92.1024,69.9383607 L93.7584,71.1934426 L94.3488,74.6413115 L190.512,64.5429508 L190.8864,63.1003279 L193.6656,62.7396721 L194.4576,64.1822951 L206.9424,62.8695082 L207.5616,60.3881967 L210.0096,59.6091803 C212.256,61.5567213 215.6544,62.3501639 219.7728,61.917377 C223.282813,61.539241 226.653359,60.3329288 229.608,58.397377 L231.8976,60.027541 L231.8976,60.2439344 L272.0304,55.9160656 L272.4768,55.9160656 C273.305303,56.0876208 274.155101,56.1314042 274.9968,56.0459016 C277.241156,55.7513954 279.370244,54.8763326 281.1744,53.5068852 L283.032,53.5068852 C284.399554,54.50897 286.113333,54.9147828 287.784,54.6321311 C290.029985,54.3366154 292.162319,53.4672241 293.976,52.107541 L295.8192,52.107541 C297.187453,53.1081069 298.900587,53.5137672 300.5712,53.2327869 C305.352,52.7278689 310.2768,48.7462295 311.328,44.5770492 C311.697232,43.3823485 311.594127,42.0911892 311.04,40.9704918 L310.8816,39.7731148 L316.8,19.2157377 L285.4512,22.504918 L240.2352,27.2944262 L239.9184,28.535082 L237.6576,29.4583607 C235.170154,28.0565299 232.279493,27.5475798 229.464,28.0157377 C225.010406,28.5647117 220.799762,30.3539964 217.3104,33.1803279 L214.9056,31.6222951 L215.3088,29.9921311 L200.3904,31.5645902 L200.1168,32.6754098 L197.3232,33.0360656 L196.7328,31.9396721 L129.9312,38.9508197 L128.2608,37.1042623 L135.9936,3.23147541 L95.1264,7.55934426 L94.8528,8.6557377 L91.9728,9.01639344 L91.3824,7.92 L40.32,13.3009836 L39.5568,16.3304918 L37.1232,17.1095082 C34.704,15.0609836 31.032,14.2242623 26.1792,14.7868852 L11.6496,16.3304918 L3.456,49.28 L16.7616,47.837377 C21.6500727,47.3481902 26.3114694,45.5271337 30.24,42.5718033 L32.616,44.1586885 L32.0832,46.2504918 L39.2832,45.5003279 Z" id="Shape"></path>
            </g>
            <path d="M315.8064,45.0963934 C316.283198,43.4505603 316.075454,41.6815132 315.2304,40.1914754 L321.7536,17.4701639 L288.1728,21.0045902 L264.2256,23.5147541 L241.92,25.9672131 L241.3584,28.2465574 C238.583864,26.6631742 235.352323,26.0777903 232.2,26.587541 C227.458571,27.1256655 222.965699,28.9961042 219.24,31.9829508 L220.176,28.2609836 L202.0464,30.1652459 L201.6,32.242623 L200.4624,30.295082 L191.7216,31.2039344 L185.6304,31.8531148 L160.272,34.4931148 L155.2464,35.0268852 L137.088,36.9311475 L132.624,37.5081967 L140.8176,1.44262295 L114.8976,4.16918033 L109.44,4.81836066 L96.8688,6.14557377 L96.336,8.29508197 L95.184,6.3042623 L85.7232,7.31409836 L80.3664,7.87672131 L73.44,8.6557377 L67.536,9.27606557 L42.0192,11.9160656 L41.0112,15.9554098 C38.4768,13.8203279 34.56,12.695082 28.9296,13.2865574 L13.32,14.9311475 L4.32,51.0111475 L19.7712,49.3809836 C24.9542913,48.8596095 29.8952413,46.9235404 34.056,43.7836066 L33.0048,47.9816393 L42.2928,47.015082 C32.688,50.0013115 26.424,58.6570492 24.48,66.3606557 C21.7296,77.3678689 27.072,84.0183607 37.7424,82.8931148 C41.205433,82.539873 44.5459711,81.4161174 47.52,79.6039344 L47.0304,81.5514754 L71.0496,79.0268852 L81.7056,77.9016393 L90.4752,76.9783607 L93.8304,71.6839344 L95.2704,71.5396721 L96.1056,76.372459 L104.8896,75.4491803 L115.6032,74.3239344 L128.16,73.0111475 L136.224,72.16 L151.344,70.5731148 L159.408,69.7219672 L176.688,67.9042623 L183.5856,67.1685246 L194.8032,65.9855738 L195.4224,63.4754098 L196.704,65.7980328 L211.2336,64.2688525 L212.112,60.7632787 C214.6032,62.9272131 218.3184,63.922623 223.0128,63.4321311 C226.757638,63.0161955 230.353012,61.7266182 233.5104,59.6668852 L232.9488,61.975082 L265.2048,58.584918 L275.2848,57.5318033 C276.260829,57.7282846 277.260764,57.7769135 278.2512,57.6760656 C280.747997,57.331921 283.113885,56.3480655 285.12,54.8196721 C286.80378,56.0752405 288.922715,56.5955334 290.9952,56.2622951 C293.504331,55.9432765 295.886875,54.9736049 297.9072,53.4491803 C299.593249,54.7116602 301.719496,55.2324718 303.7968,54.8918033 C309.1968,54.3580328 314.5968,49.9436066 315.8064,45.0963934 Z" id="Shape" fill="#FFFFFF"></path>
            <path d="M35.4816,84.5377049 C31.6134592,84.7660528 27.8431164,83.2657342 25.1856,80.4406557 C22.3056,77.0793443 21.5136,72.0734426 23.04,66.0144262 C24.7741209,59.3611913 28.7272478,53.5021465 34.2432,49.4098361 L33.192,49.5252459 L31.5648,47.6065574 L31.68,47.1737705 C28.0700001,49.2066193 24.0790952,50.4689421 19.9584,50.8813115 L4.5072,52.5114754 L2.88,50.6504918 L11.8656,14.584918 L13.1616,13.4452459 L28.8,11.7862295 C32.6483908,11.1756262 36.5911103,11.7701266 40.0896,13.4885246 L40.5504,11.5409836 L41.8608,10.4013115 L95.04,4.80393443 L95.9184,5.26557377 L96.6528,4.63081967 L140.6592,0 L142.2864,1.84655738 L134.5824,35.7193443 L136.9008,35.4308197 L200.2608,28.7514754 L201.1392,29.2131148 L201.8592,28.5927869 L219.9888,26.6740984 L221.5584,28.4918033 C224.741324,26.6017323 228.29128,25.4162579 231.9696,25.015082 C234.775158,24.6371008 237.630507,24.9643041 240.2784,25.9672131 L240.3792,25.5344262 L241.6896,24.3947541 L288,19.4898361 L321.5664,15.9409836 L323.1792,17.8740984 L316.8,40.0183607 C317.583652,41.7224604 317.736777,43.6502351 317.232,45.4570492 C315.792,50.9678689 310.032,55.7862295 303.8544,56.4354098 C301.772904,56.7271023 299.653362,56.3267471 297.8208,55.2957377 C295.791691,56.6354573 293.479782,57.484866 291.0672,57.7770492 C288.98279,58.0667432 286.860798,57.6719413 285.0192,56.6518033 C283.009326,57.990187 280.717525,58.8443888 278.3232,59.147541 C277.261846,59.2627088 276.189292,59.2189505 275.1408,59.0177049 L233.0784,63.4754098 L232.0128,62.2636066 C229.263102,63.6837411 226.275526,64.5836026 223.2,64.9180328 C219.748078,65.4208917 216.225489,64.8360852 213.12,63.2445902 L212.7744,64.615082 L211.464,65.7547541 L196.9344,67.2839344 L195.8832,66.7357377 L195.0336,67.4859016 L96.3072,77.9016393 L94.6512,76.6465574 L94.2048,73.9632787 L91.7568,77.8006557 L90.72,78.4786885 L47.1168,83.0662295 L46.1952,81.9986885 C43.6046784,83.2871421 40.805751,84.1029475 37.9296,84.4078689 C37.1163597,84.4931404 36.2992816,84.5364763 35.4816,84.5377049 Z M42.1632,45.5003279 L42.768,48.4577049 C33.5952,51.3429508 27.72,59.6813115 25.9632,66.7213115 C24.7248,71.7416393 25.2576,75.8963934 27.4032,78.4498361 C29.5488,81.0032787 32.9904,81.8832787 37.4832,81.335082 C40.6927049,80.987754 43.7857883,79.9335003 46.5408,78.2478689 L48.6288,79.7914754 L89.4672,75.4636066 L92.4336,70.7895082 L93.5424,70.0970492 L94.9824,69.9383607 L96.6384,71.1934426 L97.2288,74.6413115 L193.392,64.5429508 L193.7664,63.1003279 L196.5456,62.7396721 L197.3376,64.1822951 L209.8224,62.8695082 L210.4416,60.3881967 L212.8896,59.6091803 C215.136,61.5567213 218.5344,62.3501639 222.6528,61.917377 C226.162813,61.539241 229.533359,60.3329288 232.488,58.397377 L234.7776,60.027541 L234.7776,60.2439344 L274.9104,55.9160656 L275.3568,55.9160656 C276.185303,56.0876208 277.035101,56.1314042 277.8768,56.0459016 C280.121156,55.7513954 282.250244,54.8763326 284.0544,53.5068852 L285.912,53.5068852 C287.279554,54.50897 288.993333,54.9147828 290.664,54.6321311 C292.909985,54.3366154 295.042319,53.4672241 296.856,52.107541 L298.6992,52.107541 C300.067453,53.1081069 301.780587,53.5137672 303.4512,53.2327869 C308.232,52.7278689 313.1568,48.7462295 314.208,44.5770492 C314.577232,43.3823485 314.474127,42.0911892 313.92,40.9704918 L313.7616,39.7731148 L319.68,19.2157377 L288.3312,22.504918 L243.1152,27.2944262 L242.7984,28.535082 L240.5376,29.4583607 C238.050154,28.0565299 235.159493,27.5475798 232.344,28.0157377 C227.890406,28.5647117 223.679762,30.3539964 220.1904,33.1803279 L217.7856,31.6222951 L218.1888,29.9921311 L203.2704,31.5645902 L202.9968,32.6754098 L200.2032,33.0360656 L199.6128,31.9396721 L132.8112,38.9508197 L131.1408,37.1042623 L138.8736,3.23147541 L98.0064,7.55934426 L97.7328,8.6557377 L94.8528,9.01639344 L94.2624,7.92 L43.2,13.3009836 L42.4368,16.3304918 L40.0032,17.1095082 C37.584,15.0609836 33.912,14.2242623 29.0592,14.7868852 L14.5296,16.3304918 L6.336,49.28 L19.6416,47.837377 C24.5300727,47.3481902 29.1914694,45.5271337 33.12,42.5718033 L35.496,44.1586885 L34.9632,46.2504918 L42.1632,45.5003279 Z" id="Shape" fill="#4C00C8"></path>
            <path d="M30.7872,65.682623 C32.2272,60.0996721 36.9072,52.6990164 45.3168,51.8767213 C50.5152,51.3285246 53.0784,53.7521311 53.64,56.3777049 L48.4704,58.7868852 C47.8232334,57.0272433 45.9782876,56.0168359 44.1504,56.4209836 C39.6144,56.8970492 37.0656,61.5134426 36.1728,65.0767213 C35.28,68.64 36,72.9822951 40.176,72.5495082 C42.4976783,72.1226458 44.5629849,70.8087873 45.936,68.8852459 L50.3424,70.024918 C47.8219568,73.922697 43.7105483,76.5049289 39.1104,77.0793443 C30.5568,77.9737705 29.2896,71.7127869 30.7872,65.682623 Z" id="Shape" fill="#4C00C8"></path>
            <path d="M37.44,77.5409836 C35.284534,77.6666039 33.1814443,76.8449049 31.68,75.2904918 C29.88,73.1986885 29.4624,69.7652459 30.4992,65.5960656 C32.0832,59.1908197 37.296,52.3527869 45.36,51.5016393 C50.904,50.8957377 53.5104,53.5934426 54.0864,56.2911475 L54.0864,56.5940984 L48.3264,59.2918033 L48.168,58.96 C47.5928625,57.3604077 45.9239993,56.4350001 44.2656,56.7960656 C40.0464,57.2432787 37.5552,61.4268852 36.6192,65.2065574 C35.9712,67.7888525 36.2016,70.0393443 37.2384,71.2222951 C37.9803215,72.0002008 39.0600444,72.3571584 40.1184,72.1744262 C41.9616,71.972459 43.6464,70.8904918 45.5616,68.64 L45.72,68.452459 L50.8752,69.7940984 L50.5584,70.2413115 C47.9858816,74.2480948 43.7607379,76.8936196 39.0384,77.4544262 C38.5074779,77.5112663 37.9739444,77.5401585 37.44,77.5409836 Z M31.1184,65.7691803 C30.5568,68.0485246 29.9376,72.2465574 32.1408,74.7855738 C33.5328,76.3820765 35.808,77.0216393 38.9664,76.7042623 C43.2711917,76.1903757 47.1449909,73.8397763 49.5936,70.2557377 L46.08,69.3180328 C44.7017878,71.2255058 42.6354007,72.5193501 40.32,72.9245902 C38.999125,73.1649995 37.6471166,72.7135092 36.7344,71.7272131 C35.5392,70.3567213 35.2944,67.8465574 35.9424,65.0190164 C36.9504,60.9940984 39.6576,56.5219672 44.2512,56.0459016 C46.0852682,55.6574917 47.9436945,56.5913907 48.7296,58.2963934 L53.2944,56.1613115 C52.6752,53.8819672 50.328,51.8334426 45.4608,52.2518033 C37.7712,53.0740984 32.7888,59.6236066 31.2624,65.7691803 L31.1184,65.7691803 Z" id="Shape" fill="#4C00C8"></path>
            <polygon id="Shape" fill="#4C00C8" points="73.8576 62.984918 62.496 64.1822951 59.9328 74.5114754 54.72 75.0163934 60.8112 50.5783607 66.0384 50.0301639 63.648 59.6668852 74.9952 58.4695082 77.4 48.8327869 82.6272 48.2845902 76.5216 72.7659016 71.28 73.3140984"></polygon>
            <path d="M54.2016,75.492459 L60.48,50.2754098 L60.7392,50.2754098 L66.4992,49.6695082 L64.0944,59.3062295 L74.6496,58.1954098 L77.0544,48.5586885 L83.088,47.9239344 L76.824,73.1121311 L76.5504,73.1121311 L70.7904,73.7180328 L73.3536,63.4754098 L62.7984,64.5862295 L60.2352,74.9154098 L54.2016,75.492459 Z M61.0848,50.9678689 L55.1952,74.6268852 L59.6304,74.1652459 L62.208,63.8216393 L62.4672,63.8216393 L74.3472,62.5665574 L71.784,72.8957377 L76.2192,72.4340984 L82.08,48.7606557 L77.6592,49.2222951 L75.2544,58.8734426 L74.9952,58.8734426 L63.1008,60.1285246 L65.52,50.4918033 L61.0848,50.9678689 Z" id="Shape" fill="#4C00C8"></path>
            <path d="M101.088,65.2498361 L90.6192,66.3606557 L87.264,71.6262295 L81.648,72.2177049 L98.1072,46.6977049 L103.2336,46.1639344 L107.5536,69.52 L101.9232,70.1114754 L101.088,65.2498361 Z M99.36,55.064918 C99.2239858,54.3683698 99.1230581,53.6654037 99.0576,52.9586885 C98.712,53.6078689 98.0928,54.5888525 97.6176,55.2380328 L93.2976,61.8740984 L100.3392,61.1383607 L99.36,55.064918 Z" id="Shape" fill="#4C00C8"></path>
            <path d="M80.8992,72.6937705 L81.3312,72.0157377 L97.92,46.3370492 L103.5648,45.7455738 L108,69.837377 L101.6208,70.5009836 L100.8,65.6681967 L90.864,66.7068852 L87.4944,71.9868852 L80.8992,72.6937705 Z M98.3376,47.0583607 L82.3968,71.7704918 L87.048,71.28 L90.4032,65.9855738 L101.3904,64.8314754 L102.24,69.6786885 L107.1072,69.1593443 L102.9312,46.5678689 L98.3376,47.0583607 Z M92.5776,62.3357377 L97.2576,55.0360656 C97.92,53.997377 98.3808,53.2616393 98.6976,52.7711475 L99.3312,51.602623 L99.4032,52.9298361 C99.4032,53.5934426 99.6336,54.5888525 99.7056,54.9927869 L100.872,61.4701639 L92.5776,62.3357377 Z M98.7264,54.1272131 L97.8912,55.4544262 L94.0608,61.412459 L99.936,60.8065574 L98.9136,55.1370492 C98.9424,54.9206557 98.8704,54.5311475 98.7984,54.1272131 L98.7264,54.1272131 Z" id="Shape" fill="#4C00C8"></path>
            <polygon id="Shape" fill="#4C00C8" points="118.7424 44.5193443 123.9696 43.9711475 119.0304 63.864918 132.12 62.4222951 131.04 67.0242623 112.6656 68.957377"></polygon>
            <path d="M112.1616,69.3901639 L118.44,44.1731148 L124.4736,43.5383607 L119.52,63.4754098 L132.624,62.0327869 L131.2992,67.3560656 L131.04,67.3560656 L112.1616,69.3901639 Z M119.0448,44.8655738 L113.1552,68.5245902 L130.6944,66.6780328 L131.6304,62.9272131 L118.5264,64.3698361 L123.48,44.4760656 L119.0448,44.8655738 Z" id="Shape" fill="#4C00C8"></path>
            <polygon id="Shape" fill="#4C00C8" points="141.9264 42.0813115 147.168 41.5331148 142.2144 61.4268852 155.304 59.9842623 154.1808 64.5285246 135.8496 66.5193443"></polygon>
            <path d="M135.36,66.9521311 L141.6384,41.735082 L147.672,41.1003279 L142.704,60.9940984 L155.808,59.5514754 L154.4832,64.9180328 L154.224,64.9180328 L135.36,66.9521311 Z M142.2432,42.427541 L136.368,66.0865574 L153.8928,64.24 L154.8288,60.4747541 L141.7248,61.917377 L146.6784,42.0236066 L142.2432,42.427541 Z" id="Shape" fill="#4C00C8"></path>
            <polygon id="Shape" fill="#4C00C8" points="165.1104 39.6432787 183.6432 37.6957377 182.5344 42.1534426 169.2432 43.5960656 167.9616 48.7318033 175.7808 47.9095082 174.672 52.3816393 166.8528 53.2039344 165.4128 59.1042623 179.5104 57.6616393 178.3728 62.0327869 159.0336 64.0813115"></polygon>
            <path d="M158.544,64.5140984 L164.808,39.282623 L165.0816,39.282623 L184.1328,37.2629508 L182.88,42.4996721 L169.5888,43.9422951 L168.5088,48.2701639 L176.3424,47.4478689 L175.032,52.6990164 L174.7728,52.6990164 L167.2128,53.492459 L165.9312,58.6137705 L180.0432,57.1711475 L178.7328,62.4222951 L178.4736,62.4222951 L158.544,64.5140984 Z M165.4128,39.9895082 L159.5376,63.6485246 L178.0704,61.6865574 L178.992,58.0078689 L164.88,59.4504918 L166.5504,52.7711475 L166.8096,52.7711475 L174.3696,51.9632787 L175.2912,48.2845902 L167.4576,49.1068852 L168.8976,43.1921311 L169.1568,43.1921311 L182.1168,41.8216393 L183.024,38.1429508 L165.4128,39.9895082 Z" id="Shape" fill="#4C00C8"></path>
            <path d="M201.3696,59.6236066 L194.1696,46.5101639 C193.895136,45.9551858 193.67336,45.3755865 193.5072,44.7790164 C193.426495,45.3957537 193.311112,46.0074367 193.1616,46.6111475 L189.6192,60.8642623 L184.4208,61.412459 L190.4976,36.9744262 L195.4224,36.455082 L202.4208,49.4386885 C202.68429,49.9984215 202.905705,50.5770784 203.0832,51.1698361 C203.1552,50.6216393 203.328,49.7272131 203.4288,49.3377049 L206.928,35.2721311 L212.1264,34.7239344 L206.0208,59.147541 L201.3696,59.6236066 Z" id="Shape" fill="#4C00C8"></path>
            <path d="M183.888,61.8452459 L190.1808,36.6281967 L195.6096,36.0511475 L202.7232,49.2367213 L202.9248,49.6839344 C202.9248,49.4963934 203.0112,49.3377049 203.04,49.2222951 L206.6112,34.8970492 L212.6016,34.2622951 L206.3232,59.4793443 L201.1536,60.027541 L193.8096,46.6977049 C193.734307,46.5524298 193.667006,46.4031356 193.608,46.2504918 C193.608,46.4091803 193.608,46.5678689 193.4928,46.7121311 L189.8928,61.1383607 L183.888,61.8452459 Z M190.7712,37.3206557 L184.896,60.9796721 L189.216,60.5036066 L192.6864,46.5245902 C192.856926,45.9312124 192.996317,45.3292952 193.104,44.7213115 L193.32,42.8747541 L193.8384,44.6636066 C193.997501,45.2305466 194.209641,45.7811834 194.472,46.3081967 L201.6,59.2196721 L205.7472,58.772459 L211.6224,35.1278689 L207.2304,35.5895082 L203.8032,49.3954098 C203.7024,49.8137705 203.5296,50.6504918 203.4576,51.1842623 L203.2416,53.0885246 L202.7232,51.2419672 C202.548493,50.6689749 202.331907,50.1096484 202.0752,49.5685246 L195.2064,36.8590164 L190.7712,37.3206557 Z" id="Shape" fill="#4C00C8"></path>
            <path d="M215.4672,46.2360656 C216.9072,40.3068852 222.3648,33.252459 230.544,32.3436066 C235.8144,31.7954098 237.744,34.0603279 238.968,36.5560656 L233.7696,39.4413115 C233.083228,37.702268 231.298478,36.6592674 229.4496,36.9167213 C224.4528,37.4360656 221.8032,42.1390164 220.9248,45.6878689 C219.9024,49.8137705 220.7664,53.5934426 225.4176,53.1029508 C228.036034,52.868271 230.281929,51.1357815 231.1776,48.6596721 L231.2496,48.3855738 L226.6416,48.8760656 L227.7504,44.4039344 L237.6,43.2786885 L236.7072,46.8852459 C235.233581,52.7429108 230.227582,57.0291874 224.2224,57.575082 C215.8848,58.4983607 213.8832,52.6268852 215.4672,46.2360656 Z" id="Shape" fill="#4C00C8"></path>
            <path d="M222.624,58.08 C220.29278,58.2459645 218.010006,57.3566019 216.4032,55.6563934 C214.56,53.5357377 214.0992,50.16 215.0928,46.1495082 C216.6912,39.7442623 222.4944,32.8052459 230.5152,31.9685246 C236.1312,31.3770492 238.176,34.0170492 239.3136,36.397377 L239.472,36.7147541 L233.6112,39.9318033 L233.4384,39.5855738 C232.812138,37.9742184 231.15716,37.010548 229.4496,37.2629508 C224.8416,37.7390164 222.2496,41.9659016 221.256,45.76 C220.608,48.3567213 220.824,50.5062295 221.8176,51.6603279 C222.745523,52.5770169 224.070159,52.9670067 225.3456,52.6990164 C227.692169,52.4543646 229.72401,50.9594268 230.6592,48.7895082 L226.0512,49.28 L227.3616,44.0288525 L227.6352,44.0288525 L238.1184,42.9180328 L237.096,47.0439344 C235.587459,53.0546718 230.455079,57.4560842 224.2944,58.0222951 C223.7184,58.0511475 223.2,58.08 222.624,58.08 Z M232.056,32.6321311 C231.574793,32.6349316 231.094089,32.6638263 230.616,32.7186885 C222.9552,33.5265574 217.3968,40.1770492 215.8704,46.322623 C214.92,50.1022951 215.3376,53.2327869 217.008,55.1659016 C218.6784,57.0990164 220.9392,57.575082 224.208,57.2432787 C230.052558,56.7082971 234.921149,52.5309237 236.3472,46.827541 L237.1104,43.7547541 L227.952,44.7213115 L227.0304,48.4144262 L231.6528,47.9239344 L231.4512,48.7318033 C230.507614,51.3379752 228.156584,53.1717535 225.4032,53.4491803 C223.888366,53.7570816 222.321095,53.2735483 221.2416,52.1652459 C220.0464,50.7947541 219.8016,48.4577049 220.5072,45.572459 C221.5152,41.5331148 224.3664,37.0321311 229.3632,36.4983607 L229.9824,36.4983607 C231.656435,36.4836892 233.188221,37.4392863 233.9136,38.9508197 L238.464,36.4406557 C237.359893,33.9296978 234.784927,32.3992948 232.056,32.6321311 Z" id="Shape" fill="#4C00C8"></path>
            <polygon id="Shape" fill="#4C00C8" points="246.7296 31.0452459 265.2624 29.0977049 264.1392 33.5698361 250.848 35.012459 249.5808 40.1337705 257.4 39.3114754 256.2912 43.7836066 248.4576 44.6059016 247.0176 50.5062295 261.1296 49.0636066 260.0208 53.5357377 240.6816 55.5698361"></polygon>
            <path d="M240.1488,55.9160656 L246.4272,30.6990164 L246.6864,30.6990164 L265.752,28.6937705 L264.4416,33.944918 L251.1504,35.387541 L250.0704,39.7154098 L257.904,38.8931148 L256.5936,44.1442623 L256.3344,44.1442623 L248.76,44.9377049 L247.4928,50.0590164 L261.6048,48.6163934 L260.2944,53.867541 L260.0208,53.867541 L240.1488,55.9160656 Z M247.032,31.3914754 L241.1424,55.0504918 L259.6896,53.1029508 L260.5968,49.4098361 L246.4992,50.852459 L248.1552,44.1731148 L248.4288,44.1731148 L255.9888,43.3796721 L256.896,39.6865574 L249.0768,40.5088525 L250.56,34.6229508 L263.8512,33.1803279 L264.7728,29.5016393 L247.032,31.3914754 Z" id="Shape" fill="#4C00C8"></path>
            <path d="M276.84,49.1934426 C277.414941,47.3639473 279.012619,46.0461481 280.9152,45.8321311 C282.816,45.6445902 283.9968,46.7986885 283.5792,48.4865574 C282.951747,50.3016498 281.337697,51.5929962 279.432,51.8045902 C277.5024,52.0065574 276.48,50.8236066 276.84,49.1934426 Z M281.2464,34.7672131 L283.2048,26.8760656 L288.2448,26.3422951 L286.272,34.2334426 L282.6432,44.5770492 L279.7632,44.8655738 L281.2464,34.7672131 Z" id="Shape" fill="#4C00C8"></path>
            <path d="M279.0144,52.2085246 C278.224971,52.2523503 277.456204,51.9463935 276.912,51.3718033 C276.385718,50.7203623 276.223238,49.846796 276.48,49.0491803 C277.105695,47.067751 278.838955,45.6424182 280.9008,45.4137705 C281.856391,45.2516384 282.830549,45.5697599 283.5072,46.264918 C284.033422,46.8931556 284.206809,47.7453846 283.968,48.5298361 C283.302549,50.5023887 281.555575,51.9092661 279.4896,52.1363934 L279.0144,52.2085246 Z M281.3328,46.1639344 L280.9584,46.1639344 C279.211861,46.3520377 277.742189,47.558232 277.2144,49.2367213 C277.023512,49.7820153 277.126946,50.3873875 277.488,50.8380328 C277.99835,51.3135108 278.704217,51.517085 279.3888,51.3862295 C281.143307,51.1930964 282.632182,50.0099197 283.2192,48.3422951 C283.3953,47.7984451 283.287117,47.2023531 282.9312,46.7554098 C282.505604,46.3410882 281.925047,46.1262575 281.3328,46.1639344 Z M279.36,45.2262295 L280.872,34.6229508 L282.9024,26.4865574 L288.7488,25.8662295 L286.6464,34.2767213 L282.9312,44.88 L279.36,45.2262295 Z M281.6352,34.7672131 L280.1952,44.375082 L282.3408,44.1442623 L285.8976,34.0459016 L287.712,26.717377 L283.4784,27.1645902 L281.6352,34.7672131 Z" id="Shape" fill="#4C00C8"></path>
            <path d="M289.6272,47.837377 C290.208659,45.9913567 291.836394,44.6731602 293.76,44.4904918 C295.6608,44.2885246 296.8416,45.4570492 296.424,47.1304918 C295.797555,48.9712865 294.163569,50.281981 292.2336,50.4918033 C290.2896,50.664918 289.224,49.4819672 289.6272,47.837377 Z M294.0336,33.4111475 L295.992,25.52 L301.032,25.0006557 L299.0736,32.877377 L295.4448,43.2209836 L292.5648,43.5239344 L294.0336,33.4111475 Z" id="Shape" fill="#4C00C8"></path>
            <path d="M291.8016,50.852459 C291.015342,50.8941926 290.24925,50.594557 289.6992,50.0301639 C289.190019,49.3876881 289.028515,48.535554 289.2672,47.7508197 C289.881095,45.767241 291.612654,44.3386541 293.6736,44.1154098 C294.634786,43.9349629 295.6217,44.2554793 296.2944,44.9665574 C296.808278,45.5953108 296.975676,46.4392338 296.7408,47.2170492 C296.094785,49.1821367 294.37077,50.5942411 292.32,50.8380328 L291.8016,50.852459 Z M294.12,44.8511475 L293.76,44.8511475 C292.011947,45.0356253 290.540538,46.2432447 290.016,47.9239344 C289.841117,48.4657819 289.943419,49.059138 290.2896,49.5108197 C290.802925,49.9918299 291.513475,50.2005661 292.2048,50.0734426 C293.952519,49.8717656 295.433103,48.6907379 296.0208,47.0295082 C296.1969,46.4856582 296.088717,45.8895662 295.7328,45.442623 C295.304771,45.0228355 294.717399,44.8074235 294.12,44.8511475 Z M292.1328,43.8845902 L293.6592,33.252459 L295.6896,25.1016393 L301.536,24.5245902 L299.4336,32.9495082 L295.7184,43.5527869 L292.1328,43.8845902 Z M294.408,33.4111475 L292.968,43.0334426 L295.1136,42.802623 L298.656,32.7042623 L300.4848,25.3757377 L296.1648,25.8085246 L294.408,33.4111475 Z" id="Shape" fill="#4C00C8"></path>
            <path d="M302.4,46.4957377 C302.97322,44.6675296 304.573332,43.3533873 306.4752,43.1488525 C308.376,42.9468852 309.5568,44.1154098 309.1392,45.7888525 C308.517769,47.6081994 306.900506,48.9021156 304.992,49.1068852 C303.0768,49.3088525 302.0112,48.1403279 302.4,46.4957377 Z M306.72,32.0695082 L308.6928,24.1783607 L313.7328,23.6445902 L311.76,31.5357377 L308.232,41.8360656 L305.352,42.1390164 L306.72,32.0695082 Z" id="Shape" fill="#4C00C8"></path>
            <path d="M304.5888,49.5108197 C303.803645,49.5543091 303.039422,49.2480631 302.5008,48.6740984 C301.984421,48.0408844 301.817012,47.1914983 302.0544,46.4091803 C302.670046,44.4243234 304.399153,42.9920981 306.4608,42.7593443 C307.420349,42.6023008 308.396519,42.9193279 309.0816,43.6104918 C309.625513,44.229106 309.820539,45.0811879 309.6,45.8754098 C308.934549,47.8479624 307.187575,49.2548399 305.1216,49.4819672 C304.945432,49.5096194 304.766917,49.5192864 304.5888,49.5108197 Z M302.7888,46.6255738 C302.613931,47.1721078 302.716041,47.769733 303.0624,48.2268852 C303.574811,48.7090293 304.288279,48.9132486 304.9776,48.775082 C306.732262,48.5902765 308.22076,47.4029361 308.7936,45.7311475 C308.982302,45.1950555 308.878627,44.5992008 308.52,44.1586885 C308.001821,43.6445871 307.262093,43.4228054 306.5472,43.5672131 C304.795944,43.7402902 303.316881,44.9438636 302.7888,46.6255738 Z M304.92,42.5718033 L306.4608,31.9396721 L308.4912,23.8032787 L314.3232,23.1829508 L312.2352,31.5934426 L308.5056,42.1967213 L304.92,42.5718033 Z M307.1952,32.1127869 L305.7552,41.7206557 L307.9008,41.4898361 L311.4576,31.3914754 L313.272,24.0629508 L309.0384,24.5101639 L307.1952,32.1127869 Z" id="Shape" fill="#4C00C8"></path>
            <path d="M28.0224,20.9757377 C37.512,19.9803279 39.8304,24.9140984 38.52,30.1796721 C37.3104,35.012459 32.5584,41.1003279 22.5936,42.1534426 L13.608,43.1055738 L18.864,21.9422951 L28.0224,20.9757377 Z M33.12,30.7422951 C33.9408,27.4531148 32.7456,24.2504918 27.9792,24.7554098 L23.1696,25.2603279 L19.8288,38.6767213 L24.1488,38.215082 C28.4205007,37.8872115 32.0186216,34.8900661 33.12,30.7422951 Z" id="Shape" fill="#4C00C8"></path>
            <path d="M13.104,43.5383607 L18.576,21.6393443 L27.9792,20.6439344 L27.9792,21.0190164 L27.9792,20.6439344 C32.5872,20.1678689 35.8416,20.9901639 37.6848,23.1108197 C39.2354668,25.1641538 39.6821116,27.8489038 38.88,30.295082 C37.6272,35.2865574 32.6304,41.5042623 22.6224,42.557377 L13.104,43.5383607 Z M19.1664,22.2885246 L14.0976,42.6727869 L22.5504,41.8360656 C32.1696,40.8262295 36.9504,34.8970492 38.1456,30.1363934 C38.8983217,27.9315891 38.5156892,25.496637 37.1232,23.6301639 C35.4672,21.7259016 32.3424,20.9613115 28.0512,21.4085246 L19.1664,22.2885246 Z M19.296,39.1095082 L22.8384,24.9140984 L27.9072,24.3803279 C29.6377313,24.0125039 31.4358406,24.5567289 32.6736,25.8229508 C33.7342426,27.2853472 34.0289017,29.1692333 33.4656,30.8865574 C32.3370521,35.1725092 28.6310613,38.2780264 24.2208,38.6334426 L19.296,39.1095082 Z M23.4432,25.6065574 L20.304,38.2439344 L24.1344,37.84 C28.2566254,37.5312066 31.7278689,34.6332346 32.7744,30.6268852 C33.2571703,29.1649623 33.0222749,27.5604856 32.1408,26.2990164 C31.0476917,25.2476369 29.4992012,24.8191279 28.0224,25.1593443 L23.4432,25.6065574 Z" id="Shape" fill="#4C00C8"></path>
            <polygon id="Shape" fill="#4C00C8" points="47.52 18.9127869 66.0384 16.9652459 65.0736 20.8314754 51.7824 22.2740984 50.688 26.717377 58.5072 25.895082 57.6 29.732459 49.7808 30.5547541 48.4992 35.6616393 62.6112 34.2190164 61.6464 38.0852459 42.2928 40.0760656"></polygon>
            <path d="M41.76,40.5088525 L47.2176,18.5665574 L47.4768,18.5665574 L66.5424,16.5613115 L65.376,21.2209836 L52.0848,22.6636066 L51.1776,26.3134426 L59.04,25.4190164 L57.8736,30.0786885 L50.0544,30.9009836 L48.9744,35.2288525 L63.0864,33.7862295 L61.92,38.3881967 L61.6608,38.3881967 L41.76,40.5088525 Z M47.8224,19.2734426 L42.7968,39.6432787 L61.3296,37.6957377 L62.0928,34.6229508 L47.9952,36.0655738 L49.4352,30.1796721 L57.2544,29.3429508 L58.032,26.2557377 L50.1984,27.092459 L51.5088,21.8557377 L64.8,20.4131148 L65.5632,17.3259016 L47.8224,19.2734426 Z" id="Shape" fill="#4C00C8"></path>
            <polygon id="Shape" fill="#4C00C8" points="73.1088 16.2295082 78.3504 15.6813115 73.08 36.8445902 67.8528 37.3927869"></polygon>
            <path d="M67.3488,37.8255738 L72.8208,15.8688525 L78.84,15.2340984 L73.44,37.1908197 L67.3488,37.8255738 Z M73.44,16.5757377 L68.3424,36.96 L72.7776,36.4839344 L77.8464,16.1140984 L73.44,16.5757377 Z" id="Shape" fill="#4C00C8"></path>
            <path d="M97.6176,34.2478689 L89.9136,23.0819672 C89.6279448,22.6253549 89.3868326,22.1422521 89.1936,21.6393443 C89.1305201,22.1737743 89.0343346,22.7037584 88.9056,23.2262295 L85.8384,35.4885246 L80.64,36.0655738 L85.9104,14.9022951 L90.8352,14.4262295 L98.2944,25.4911475 C98.5716488,25.9547383 98.817018,26.4367308 99.0288,26.9337705 C99.0891752,26.3989378 99.1853924,25.8687794 99.3168,25.3468852 L102.3408,13.1567213 L107.5392,12.6229508 L102.24,33.757377 L97.6176,34.2478689 Z" id="Shape" fill="#4C00C8"></path>
            <path d="M80.1504,36.4695082 L85.608,14.5272131 L91.0224,13.9645902 L98.6112,25.2314754 L98.856,25.6498361 C98.856,25.5055738 98.856,25.3613115 98.9424,25.2459016 L102.0384,12.7960656 L108,12.1757377 L102.5712,34.1180328 L97.4304,34.6229508 L89.5968,23.2406557 C89.5968,23.1252459 89.4384,22.9809836 89.3664,22.8367213 C89.3664,22.9809836 89.2944,23.1108197 89.28,23.2262295 L86.1408,35.8203279 L80.1504,36.4695082 Z M86.2128,15.2340984 L81.144,35.6039344 L85.464,35.1422951 L88.5312,23.0819672 C88.6628463,22.5803406 88.7543365,22.0689917 88.8048,21.5527869 L88.9776,19.9370492 L89.5392,21.3796721 C89.7202107,21.882768 89.9518011,22.3661269 90.2304,22.8222951 L97.8048,33.8439344 L101.9664,33.3967213 L107.0352,12.9836066 L102.7152,13.4452459 L99.7488,25.3613115 C99.5854826,25.8862951 99.4556211,26.4211427 99.36,26.962623 L99.216,28.6216393 L98.6256,27.0636066 C98.4336535,26.5651724 98.202528,26.082784 97.9344,25.6209836 L90.72,14.7580328 L86.2128,15.2340984 Z" id="Shape" fill="#4C00C8"></path>
            <polygon id="Shape" fill="#4C00C8" points="114.912 11.8295082 133.4304 9.88196721 132.48 13.7481967 119.1888 15.1908197 118.08 19.5908197 125.8992 18.7540984 124.9344 22.6203279 117.1152 23.442623 115.8336 28.5495082 129.9456 27.1068852 128.9808 30.9731148 109.6416 32.9927869"></polygon>
            <path d="M109.152,33.4255738 L114.6096,11.5409836 L114.8688,11.5409836 L133.92,9.4347541 L132.768,14.0944262 L119.4768,15.5370492 L118.5696,19.2013115 L126.4032,18.3790164 L125.28,22.9809836 L117.4608,23.8032787 L116.3808,28.1311475 L130.4928,26.6885246 L129.3264,31.3481967 L129.0672,31.3481967 L109.152,33.4255738 Z M115.2,12.1757377 L110.1456,32.56 L128.6784,30.5980328 L129.4416,27.5108197 L115.344,28.9534426 L116.784,23.067541 L124.6032,22.2452459 L125.3808,19.1580328 L117.5472,19.9803279 L118.8432,14.7580328 L132.1344,13.3154098 L132.912,10.2281967 L115.2,12.1757377 Z" id="Shape" fill="#4C00C8"></path>
        </g>
    </g>
</svg>